<svg width="20" height="22" viewBox="0 0 20 22" fill="none" xmlns="http://www.w3.org/2000/svg">
<path d="M0.5 21.115V19.615H19.5V21.115H0.5ZM2.5 18.5V13.154C1.9372 12.132 1.5074 11.104 1.2106 10.07C0.9138 9.03601 0.7654 8.02 0.7654 7.021C0.7654 6.12 0.8801 5.21101 1.1096 4.29501C1.3391 3.37901 1.6449 2.404 2.0269 1.371C2.1218 1.111 2.2776 0.90099 2.4942 0.73999C2.7109 0.57999 2.9577 0.5 3.2346 0.5C3.6038 0.5 3.9173 0.631989 4.1749 0.894989C4.4326 1.15899 4.5378 1.468 4.4903 1.823L4.225 3.992C4.1249 4.831 4.2134 5.63999 4.4903 6.42099C4.7673 7.20199 5.1746 7.894 5.7125 8.496C6.2503 9.099 6.8897 9.58301 7.6307 9.95001C8.3718 10.317 9.1615 10.5 10 10.5C11.0192 10.5 11.9929 10.588 12.9211 10.764C13.8493 10.941 14.65 11.195 15.323 11.527C16.0153 11.872 16.5512 12.313 16.9307 12.85C17.3102 13.387 17.5 14.054 17.5 14.85V18.5H2.5ZM4 17H16V14.85C16 14.418 15.8904 14.038 15.6711 13.711C15.4519 13.383 15.1333 13.118 14.7154 12.915C14.1025 12.62 13.375 12.394 12.5327 12.237C11.6904 12.079 10.8461 12 10 12C8.9384 12 7.9401 11.769 7.0048 11.306C6.0695 10.843 5.2663 10.229 4.5952 9.46399C3.924 8.69999 3.417 7.82499 3.074 6.83899C2.7311 5.85399 2.6231 4.84099 2.75 3.79999C2.5833 4.29999 2.4625 4.82701 2.3875 5.38101C2.3125 5.93501 2.275 6.481 2.275 7.021C2.275 7.93 2.4346 8.853 2.7538 9.789C3.073 10.726 3.4884 11.709 4 12.738V17ZM10 9.26901C9.0346 9.26901 8.2099 8.92701 7.526 8.24301C6.842 7.55901 6.5 6.73501 6.5 5.76901C6.5 4.80401 6.842 3.97901 7.526 3.29501C8.2099 2.61101 9.0346 2.26901 10 2.26901C10.9653 2.26901 11.79 2.61101 12.474 3.29501C13.158 3.97901 13.5 4.80401 13.5 5.76901C13.5 6.73501 13.158 7.55901 12.474 8.24301C11.79 8.92701 10.9653 9.26901 10 9.26901ZM10 7.76901C10.55 7.76901 11.0208 7.57301 11.4125 7.18201C11.8041 6.79001 12 6.31901 12 5.76901C12 5.21901 11.8041 4.74799 11.4125 4.35699C11.0208 3.96499 10.55 3.76901 10 3.76901C9.45 3.76901 8.9791 3.96499 8.5875 4.35699C8.1958 4.74799 8 5.21901 8 5.76901C8 6.31901 8.1958 6.79001 8.5875 7.18201C8.9791 7.57301 9.45 7.76901 10 7.76901ZM6.2692 18.5V17.835C6.2692 16.808 6.6279 15.931 7.3452 15.205C8.0625 14.479 8.9346 14.115 9.9615 14.115H13.6538V15.615H9.9615C9.3436 15.615 8.8237 15.832 8.4019 16.266C7.9801 16.7 7.7692 17.223 7.7692 17.835V18.5H6.2692Z" fill="#0F62FE"/>
</svg>
