<svg width="20" height="20" viewBox="0 0 20 20" fill="none" xmlns="http://www.w3.org/2000/svg">
<path d="M10.0016 19.5C8.6877 19.5 7.4527 19.251 6.2966 18.752C5.1404 18.253 4.1347 17.577 3.2795 16.722C2.4243 15.867 1.7472 14.862 1.2483 13.706C0.749401 12.55 0.5 11.316 0.5 10.002C0.5 8.68801 0.749299 7.453 1.248 6.297C1.7467 5.14 2.4234 4.135 3.2783 3.28C4.1331 2.424 5.1383 1.74699 6.294 1.24799C7.4496 0.748986 8.6844 0.5 9.9983 0.5C11.3122 0.5 12.5473 0.748986 13.7034 1.24799C14.8596 1.74699 15.8652 2.42302 16.7205 3.27802C17.5757 4.13302 18.2527 5.13801 18.7516 6.29401C19.2505 7.45001 19.5 8.68399 19.5 9.99799C19.5 11.312 19.2506 12.547 18.752 13.703C18.2533 14.86 17.5765 15.865 16.7217 16.72C15.8669 17.576 14.8616 18.253 13.706 18.752C12.5504 19.251 11.3156 19.5 10.0016 19.5ZM4.333 15.665L10 10V2C7.7666 2 5.875 2.77501 4.325 4.32501C2.775 5.87501 2 7.767 2 10C2 11.067 2.2016 12.09 2.6048 13.07C3.008 14.05 3.5841 14.915 4.333 15.665Z" fill="#0F62FE"/>
</svg>
