<svg width="18" height="18" viewBox="0 0 18 18" fill="none" xmlns="http://www.w3.org/2000/svg">
<path d="M4.6923 17.5V16H8.25V12.573C7.4013 12.403 6.6513 12.045 6 11.502C5.3487 10.958 4.8859 10.281 4.6115 9.46899C3.4577 9.33199 2.484 8.842 1.6904 8C0.896799 7.158 0.5 6.158 0.5 5V4C0.5 3.591 0.6478 3.23899 0.9433 2.94299C1.2388 2.64799 1.591 2.5 2 2.5H4.3269V0.5H13.673V2.5H16C16.4089 2.5 16.7612 2.64799 17.0567 2.94299C17.3522 3.23899 17.5 3.591 17.5 4V5C17.5 6.158 17.1032 7.158 16.3096 8C15.516 8.842 14.5423 9.33199 13.3884 9.46899C13.1141 10.281 12.6512 10.958 12 11.502C11.3487 12.045 10.5987 12.403 9.75 12.573V16H13.3076V17.5H4.6923ZM4.3269 7.858V4H2V5C2 5.697 2.2186 6.31001 2.6558 6.83701C3.0929 7.36501 3.65 7.705 4.3269 7.858ZM9 11.135C9.8782 11.135 10.6234 10.829 11.2355 10.216C11.8477 9.604 12.1538 8.85899 12.1538 7.98099V2H5.8461V7.98099C5.8461 8.85899 6.1522 9.604 6.7644 10.216C7.3766 10.829 8.1218 11.135 9 11.135ZM13.673 7.858C14.35 7.705 14.907 7.36501 15.3442 6.83701C15.7814 6.31001 16 5.697 16 5V4H13.673V7.858Z" fill="#0F62FE"/>
</svg>
