<svg width="18" height="18" viewBox="0 0 18 18" fill="none" xmlns="http://www.w3.org/2000/svg">
<path d="M6 17.75C4.9641 17.75 4.0801 17.384 3.3481 16.652C2.616 15.92 2.25 15.036 2.25 14V5.65198C1.6667 5.43498 1.1875 5.089 0.8125 4.612C0.4375 4.136 0.25 3.59999 0.25 3.00299C0.25 2.23799 0.517201 1.58798 1.0517 1.05298C1.5862 0.517978 2.2353 0.25 2.9989 0.25C3.7624 0.25 4.4118 0.517978 4.9471 1.05298C5.4823 1.58798 5.7499 2.23799 5.7499 3.00299C5.7499 3.59999 5.5624 4.136 5.1874 4.612C4.8124 5.089 4.3333 5.43498 3.7499 5.65198V14C3.7499 14.619 3.9705 15.148 4.4115 15.589C4.8525 16.03 5.3826 16.25 6.0019 16.25C6.6211 16.25 7.1506 16.03 7.5904 15.589C8.0301 15.148 8.25 14.619 8.25 14V4C8.25 2.964 8.616 2.08002 9.3481 1.34802C10.0801 0.616022 10.9641 0.25 12 0.25C13.0359 0.25 13.9198 0.616022 14.6519 1.34802C15.3839 2.08002 15.75 2.964 15.75 4V12.348C16.3333 12.565 16.8125 12.911 17.1875 13.387C17.5625 13.864 17.75 14.4 17.75 14.997C17.75 15.762 17.4827 16.412 16.9482 16.947C16.4137 17.482 15.7647 17.75 15.0011 17.75C14.2375 17.75 13.5881 17.482 13.0529 16.947C12.5176 16.412 12.25 15.762 12.25 14.997C12.25 14.4 12.4375 13.86 12.8125 13.375C13.1875 12.89 13.6667 12.548 14.25 12.348V4C14.25 3.381 14.0295 2.85201 13.5885 2.41101C13.1475 1.97001 12.6174 1.75 11.9981 1.75C11.3788 1.75 10.8493 1.97001 10.4096 2.41101C9.9698 2.85201 9.75 3.381 9.75 4V14C9.75 15.036 9.3839 15.92 8.6519 16.652C7.9198 17.384 7.0359 17.75 6 17.75ZM3 4.25C3.3474 4.25 3.6426 4.12899 3.8856 3.88599C4.1285 3.64299 4.25 3.347 4.25 3C4.25 2.653 4.1285 2.35701 3.8856 2.11401C3.6426 1.87101 3.3474 1.75 3 1.75C2.6525 1.75 2.3573 1.87101 2.1144 2.11401C1.8714 2.35701 1.7499 2.653 1.7499 3C1.7499 3.347 1.8714 3.64299 2.1144 3.88599C2.3573 4.12899 2.6525 4.25 3 4.25ZM15 16.25C15.3474 16.25 15.6426 16.129 15.8856 15.886C16.1285 15.643 16.25 15.347 16.25 15C16.25 14.653 16.1285 14.357 15.8856 14.114C15.6426 13.871 15.3474 13.75 15 13.75C14.6525 13.75 14.3573 13.871 14.1144 14.114C13.8714 14.357 13.75 14.653 13.75 15C13.75 15.347 13.8714 15.643 14.1144 15.886C14.3573 16.129 14.6525 16.25 15 16.25Z" fill="#0F62FE"/>
</svg>
