<svg width="20" height="20" viewBox="0 0 20 20" fill="none" xmlns="http://www.w3.org/2000/svg">
<path d="M7 13.75C7.4859 13.75 7.899 13.58 8.2394 13.239C8.5798 12.899 8.75 12.486 8.75 12C8.75 11.514 8.5798 11.101 8.2394 10.761C7.899 10.42 7.4859 10.25 7 10.25C6.5141 10.25 6.1009 10.42 5.7606 10.761C5.4202 11.101 5.25 11.514 5.25 12C5.25 12.486 5.4202 12.899 5.7606 13.239C6.1009 13.58 6.5141 13.75 7 13.75ZM13 13.75C13.4859 13.75 13.899 13.58 14.2394 13.239C14.5798 12.899 14.75 12.486 14.75 12C14.75 11.514 14.5798 11.101 14.2394 10.761C13.899 10.42 13.4859 10.25 13 10.25C12.5141 10.25 12.1009 10.42 11.7606 10.761C11.4202 11.101 11.25 11.514 11.25 12C11.25 12.486 11.4202 12.899 11.7606 13.239C12.1009 13.58 12.5141 13.75 13 13.75ZM10 8.75C10.4859 8.75 10.899 8.58001 11.2394 8.23901C11.5798 7.89901 11.75 7.486 11.75 7C11.75 6.514 11.5798 6.10099 11.2394 5.76099C10.899 5.41999 10.4859 5.25 10 5.25C9.5141 5.25 9.1009 5.41999 8.7606 5.76099C8.4202 6.10099 8.25 6.514 8.25 7C8.25 7.486 8.4202 7.89901 8.7606 8.23901C9.1009 8.58001 9.5141 8.75 10 8.75ZM10.0016 19.5C8.6877 19.5 7.4527 19.251 6.2966 18.752C5.1404 18.253 4.1347 17.577 3.2795 16.722C2.4243 15.867 1.7472 14.862 1.2483 13.706C0.749401 12.55 0.5 11.316 0.5 10.002C0.5 8.68801 0.749299 7.453 1.248 6.297C1.7467 5.14 2.4234 4.13503 3.2783 3.28003C4.1331 2.42403 5.1383 1.74699 6.294 1.24799C7.4496 0.748986 8.6844 0.5 9.9983 0.5C11.3122 0.5 12.5473 0.748986 13.7034 1.24799C14.8596 1.74699 15.8652 2.42302 16.7205 3.27802C17.5757 4.13302 18.2527 5.13801 18.7516 6.29401C19.2505 7.45001 19.5 8.68399 19.5 9.99799C19.5 11.312 19.2506 12.547 18.752 13.703C18.2533 14.86 17.5765 15.865 16.7217 16.72C15.8669 17.576 14.8616 18.253 13.706 18.752C12.5504 19.251 11.3156 19.5 10.0016 19.5ZM10 18C12.2333 18 14.125 17.225 15.675 15.675C17.225 14.125 18 12.233 18 10C18 7.767 17.225 5.87501 15.675 4.32501C14.125 2.77501 12.2333 2 10 2C7.7666 2 5.875 2.77501 4.325 4.32501C2.775 5.87501 2 7.767 2 10C2 12.233 2.775 14.125 4.325 15.675C5.875 17.225 7.7666 18 10 18Z" fill="white"/>
</svg>
