<svg width="19" height="19" viewBox="0 0 19 19" fill="none" xmlns="http://www.w3.org/2000/svg">
<path d="M5.8769 18.5H2C1.5846 18.5 1.2308 18.354 0.9384 18.062C0.6461 17.769 0.5 17.415 0.5 17V13.123C1.1846 13.04 1.7724 12.755 2.2634 12.269C2.7545 11.783 3 11.194 3 10.5C3 9.807 2.7545 9.21702 2.2634 8.73102C1.7724 8.24502 1.1846 7.96001 0.5 7.87701V4C0.5 3.585 0.6461 3.23103 0.9384 2.93903C1.2308 2.64603 1.5846 2.5 2 2.5H6C6.0897 1.864 6.3682 1.34 6.8355 0.927002C7.3029 0.514002 7.8577 0.307983 8.5 0.307983C9.1423 0.307983 9.6971 0.514002 10.1644 0.927002C10.6317 1.34 10.9102 1.864 11 2.5H15C15.4153 2.5 15.7692 2.64603 16.0615 2.93903C16.3538 3.23103 16.5 3.585 16.5 4V8C17.1358 8.09 17.6602 8.368 18.073 8.836C18.4858 9.303 18.6922 9.858 18.6922 10.5C18.6922 11.142 18.4858 11.697 18.073 12.165C17.6602 12.632 17.1358 12.91 16.5 13V17C16.5 17.415 16.3538 17.769 16.0615 18.062C15.7692 18.354 15.4153 18.5 15 18.5H11.123C11.0333 17.782 10.7403 17.186 10.2442 16.712C9.748 16.237 9.1666 16 8.5 16C7.8333 16 7.2519 16.237 6.7557 16.712C6.2596 17.186 5.9667 17.782 5.8769 18.5ZM2 17H4.7116C5.0539 16.118 5.5945 15.481 6.3336 15.089C7.0727 14.696 7.7949 14.5 8.5 14.5C9.2051 14.5 9.9272 14.696 10.6663 15.089C11.4054 15.481 11.9461 16.118 12.2884 17H15V11.558H16.2307C16.5371 11.519 16.774 11.396 16.9413 11.187C17.1086 10.978 17.1922 10.749 17.1922 10.5C17.1922 10.251 17.1086 10.023 16.9413 9.81403C16.774 9.60503 16.5371 9.48102 16.2307 9.44202H15V4H9.5577V2.76898C9.5192 2.46298 9.3955 2.22602 9.1866 2.05902C8.9776 1.89102 8.7487 1.80798 8.5 1.80798C8.2512 1.80798 8.0224 1.89102 7.8134 2.05902C7.6044 2.22602 7.4807 2.46298 7.4423 2.76898V4H2V6.73901C2.7589 7.05301 3.3653 7.55202 3.8192 8.23602C4.273 8.92002 4.4999 9.674 4.4999 10.5C4.4999 11.315 4.273 12.065 3.8192 12.749C3.3653 13.433 2.7589 13.937 2 14.262V17Z" fill="#0F62FE"/>
</svg>
