<svg width="28" height="18" viewBox="0 0 28 18" fill="none" xmlns="http://www.w3.org/2000/svg">
<path d="M19.83 17.167H8.17004C6.00004 17.167 3.92001 16.306 2.39001 14.775C0.860015 13.243 0 11.166 0 9.00001C0 6.83401 0.860015 4.75701 2.39001 3.22501C3.92001 1.69401 6.00004 0.833008 8.17004 0.833008H19.83C22 0.833008 24.08 1.69401 25.61 3.22501C27.14 4.75701 28 6.83401 28 9.00001C28 11.166 27.14 13.243 25.61 14.775C24.08 16.306 22 17.167 19.83 17.167ZM19.83 15.417C21.54 15.417 23.17 14.741 24.37 13.537C25.57 12.334 26.25 10.702 26.25 9.00001C26.25 7.29801 25.57 5.66601 24.37 4.46301C23.17 3.25901 21.54 2.58301 19.83 2.58301H8.17004C6.46004 2.58301 4.83 3.25901 3.63 4.46301C2.43 5.66601 1.75 7.29801 1.75 9.00001C1.75 10.702 2.43 12.334 3.63 13.537C4.83 14.741 6.46004 15.417 8.17004 15.417H19.83Z" fill="#65676B"/>
</svg>
