<svg width="18" height="19" viewBox="0 0 18 19" fill="none" xmlns="http://www.w3.org/2000/svg">
<mask id="mask0_1_481" style="mask-type:luminance" maskUnits="userSpaceOnUse" x="0" y="0" width="18" height="19">
<path d="M18 0.5H0V18.5H18V0.5Z" fill="white"/>
</mask>
<g mask="url(#mask0_1_481)">
<path d="M8.78899 0.85199C8.72199 0.91799 8.71899 0.968 8.71899 1.625C8.71899 2.282 8.72199 2.33201 8.78899 2.39801C8.83499 2.44401 8.90499 2.46899 8.99999 2.46899C9.09499 2.46899 9.16499 2.44401 9.21099 2.39801C9.27799 2.33201 9.28099 2.282 9.28099 1.625C9.28099 0.968 9.27799 0.91799 9.21099 0.85199C9.16499 0.80599 9.09499 0.781006 8.99999 0.781006C8.90499 0.781006 8.83499 0.80599 8.78899 0.85199Z" fill="#7B7796"/>
<path d="M6.01891 2.02197C5.96591 2.07897 5.94092 2.14899 5.94092 2.23999C5.94092 2.36699 5.97292 2.405 6.36992 2.81C6.81992 3.263 6.92892 3.33003 7.11192 3.26703C7.23192 3.22803 7.27692 3.14698 7.27692 2.97498C7.27692 2.85198 7.24592 2.80999 6.82692 2.39099C6.39792 1.96299 6.36992 1.94098 6.23692 1.94098C6.13492 1.94098 6.07491 1.96297 6.01891 2.02197Z" fill="#7B7796"/>
<path d="M11.155 2.409C10.733 2.831 10.688 2.88697 10.688 2.99597C10.691 3.13297 10.737 3.20999 10.86 3.27399C11.032 3.36799 11.141 3.30203 11.612 2.82703C12.034 2.39803 12.059 2.36597 12.059 2.23297C12.059 2.04997 11.95 1.94098 11.76 1.94098C11.63 1.94098 11.595 1.969 11.155 2.409Z" fill="#7B7796"/>
<path d="M8.60995 3.312C7.49195 3.45 6.55994 4.11097 6.06094 5.12297C5.90594 5.43597 5.76595 5.90397 5.76595 6.09697C5.76595 6.14997 5.75195 6.19499 5.72995 6.19499C5.71295 6.19499 5.41394 6.15 5.07294 6.093C4.14094 5.939 3.36395 5.86797 2.63295 5.86497L1.98295 5.86101L1.81094 5.96696C1.70194 6.03396 1.59595 6.13898 1.52895 6.24498C1.43095 6.40598 1.42394 6.44801 1.40594 6.83501L1.38895 7.25401L1.20595 7.317C0.853948 7.436 0.572944 7.69301 0.393944 8.05901L0.29895 8.252V12.594V16.936L0.400948 17.146C0.533948 17.417 0.801945 17.684 1.07195 17.818L1.28294 17.92H8.99995H16.7169L16.9279 17.818C17.1979 17.684 17.4659 17.417 17.5989 17.146L17.7009 16.936V12.594V8.252L17.6059 8.05199C17.4409 7.69599 17.0369 7.35198 16.6919 7.27098L16.6009 7.24998L16.5869 6.81401C16.5759 6.39201 16.5729 6.37097 16.4709 6.22697C16.4109 6.14297 16.2949 6.02696 16.2109 5.96696L16.0589 5.86101L15.3349 5.86497C14.5579 5.87197 13.7429 5.94898 12.7999 6.10698C12.1919 6.21298 12.2339 6.20901 12.2339 6.12901C12.2339 6.09301 12.1959 5.914 12.1499 5.731C11.8019 4.353 10.5999 3.37899 9.15794 3.30199C8.98594 3.29099 8.73595 3.295 8.60995 3.312ZM9.50995 3.94896C10.0159 4.03696 10.5539 4.33601 10.9269 4.73601C11.9779 5.85801 11.8929 7.57001 10.7369 8.57201C10.3639 8.89501 10.2059 9.07496 10.0759 9.32396C9.92094 9.62296 9.88595 9.73899 9.84695 10.091C9.81195 10.425 9.74195 10.53 9.53094 10.59C9.25994 10.664 9.28094 10.748 9.28094 9.56999V8.51598L8.84895 7.99901C8.60995 7.71101 8.37095 7.42596 8.31795 7.36296L8.21995 7.24998H8.95094H9.67895L9.41095 7.528C9.17195 7.77 9.14095 7.81999 9.14095 7.93199C9.14095 8.10799 9.26695 8.23399 9.44295 8.23399C9.56595 8.23399 9.61195 8.196 10.132 7.679C10.673 7.137 10.688 7.123 10.688 6.976C10.688 6.874 10.6659 6.80698 10.6169 6.75798C10.5499 6.69098 10.5009 6.68797 9.02095 6.68797C8.18095 6.68797 7.46694 6.69797 7.43594 6.70897C7.34394 6.74397 7.28095 6.92701 7.31595 7.04601C7.32995 7.10201 7.65395 7.51699 8.02995 7.97099L8.71895 8.79698V9.71098C8.71895 10.73 8.73595 10.664 8.46895 10.59C8.26195 10.534 8.18794 10.421 8.15594 10.119C8.08194 9.468 7.96595 9.26396 7.31595 8.62096C6.83395 8.14596 6.78495 8.08696 6.63395 7.77696C6.43395 7.37296 6.36694 7.123 6.33894 6.705C6.27494 5.696 6.84494 4.69796 7.75494 4.21996C8.34594 3.90996 8.84895 3.83296 9.50995 3.94896ZM3.23395 6.47697C3.85995 6.52197 4.46095 6.59597 5.13295 6.70897C5.80095 6.82097 5.76595 6.80701 5.76595 6.96501C5.76595 7.31301 6.02594 7.99897 6.32494 8.43797C6.40194 8.55097 6.66195 8.83199 6.90095 9.05699C7.41395 9.53499 7.50194 9.68597 7.57594 10.214C7.64294 10.702 7.80794 10.955 8.15594 11.114C8.29694 11.177 8.38795 11.188 9.02095 11.188C9.70695 11.188 9.72794 11.184 9.90694 11.096C10.2299 10.934 10.3959 10.667 10.4409 10.224C10.4939 9.72498 10.6419 9.45796 11.0599 9.11296C11.6719 8.61396 12.0829 7.91398 12.2169 7.15898C12.2449 6.98598 12.2839 6.839 12.2979 6.825C12.3259 6.796 12.9939 6.67696 13.5669 6.59996C14.1569 6.51896 15.0499 6.44497 15.4619 6.43797C15.7959 6.43397 15.8309 6.441 15.9119 6.515L15.9959 6.593V11.188V15.782L15.9079 15.863C15.8239 15.941 15.7849 15.948 15.1589 15.976C13.2429 16.057 11.1589 16.475 9.51994 17.104L9.28094 17.196V14.756V12.312H9.49194C9.65694 12.312 9.71695 12.298 9.77295 12.242C9.86795 12.147 9.86795 11.915 9.77295 11.82C9.70695 11.754 9.65695 11.75 8.99995 11.75C8.34295 11.75 8.29294 11.754 8.22694 11.82C8.18094 11.866 8.15594 11.936 8.15594 12.031C8.15594 12.242 8.24395 12.312 8.50795 12.312H8.71895V14.756V17.196L8.49695 17.111C6.74295 16.454 4.76395 16.057 2.81995 15.972C2.18295 15.948 2.17595 15.944 2.08095 15.853L1.98595 15.758V11.191V6.62401L2.07095 6.533C2.18995 6.406 2.22195 6.40597 3.23395 6.47697ZM1.52895 16.13C1.59595 16.232 1.70195 16.341 1.79995 16.401C1.98995 16.517 2.14095 16.542 3.14595 16.602C3.88095 16.647 4.58395 16.735 5.38595 16.886C5.93395 16.988 7.05894 17.262 7.24194 17.336C7.30194 17.361 6.43695 17.368 4.42995 17.364C1.56395 17.357 1.52595 17.357 1.37095 17.284C1.17095 17.189 1.02994 17.048 0.934944 16.848C0.860944 16.689 0.860947 16.682 0.860947 12.611C0.860947 9.26801 0.86795 8.50901 0.91095 8.40001C0.96295 8.24101 1.13194 8.04097 1.28294 7.94597L1.38895 7.88298L1.40594 11.919L1.42395 15.958L1.52895 16.13ZM17.0049 8.231C17.0889 8.375 17.1209 8.46998 17.1389 8.66698C17.1489 8.80698 17.1559 10.667 17.1489 12.805C17.1389 16.457 17.1349 16.696 17.0749 16.83C16.9909 17.02 16.8189 17.192 16.6289 17.284C16.4709 17.357 16.4459 17.357 13.5699 17.364C10.2969 17.371 10.4449 17.393 11.5839 17.111C12.7229 16.83 13.7739 16.668 14.8539 16.602C15.8589 16.542 16.0099 16.517 16.1999 16.401C16.2979 16.341 16.4039 16.232 16.4709 16.13L16.5759 15.958L16.5869 11.915L16.5939 7.87596L16.7449 7.96397C16.8359 8.01597 16.9349 8.118 17.0049 8.231Z" fill="#7B7796"/>
<path d="M2.9669 7.54904C2.8439 7.59804 2.81189 7.65801 2.81189 7.83401C2.81189 7.98101 2.9069 8.083 3.0659 8.108C3.2699 8.136 4.05389 8.199 4.22589 8.199C4.35889 8.199 4.40189 8.182 4.46089 8.108C4.55589 7.985 4.55589 7.841 4.45789 7.725C4.38389 7.64 4.33789 7.63001 3.91989 7.58401C3.12489 7.50301 3.0799 7.50004 2.9669 7.54904Z" fill="#7B7796"/>
<path d="M2.96393 8.69097C2.79093 8.76197 2.75594 9.04601 2.89994 9.18401C2.97394 9.25401 3.04093 9.26801 3.36393 9.29601C3.57193 9.31001 3.99693 9.359 4.30693 9.398C5.22393 9.521 5.29794 9.52101 5.39994 9.42601C5.56494 9.27101 5.48393 8.96896 5.26593 8.92296C4.98493 8.85996 3.87093 8.72699 3.26993 8.67699C3.14293 8.66999 3.00593 8.67397 2.96393 8.69097Z" fill="#7B7796"/>
<path d="M2.98789 10.65C2.86489 10.696 2.81189 10.78 2.81189 10.931C2.81189 11.111 2.8929 11.213 3.0659 11.237C3.1289 11.248 3.39589 11.272 3.65589 11.294C4.77789 11.389 6.02189 11.624 7.19289 11.965C7.62889 12.088 7.6779 12.092 7.7869 11.979C7.8959 11.874 7.90689 11.652 7.81189 11.564C7.63889 11.41 6.08589 11.016 4.92189 10.837C4.13389 10.714 3.08689 10.612 2.98789 10.65Z" fill="#7B7796"/>
<path d="M14.309 10.7021C13.827 10.7441 12.814 10.895 12.305 10.997C11.436 11.169 10.273 11.489 10.16 11.584C10.009 11.711 10.037 11.936 10.213 12.052C10.301 12.108 10.318 12.108 10.663 12.013C12.238 11.584 13.24 11.398 14.512 11.289C15.117 11.236 15.187 11.201 15.187 10.958C15.187 10.835 15.17 10.789 15.096 10.733C14.991 10.652 14.882 10.6451 14.309 10.7021Z" fill="#7B7796"/>
<path d="M2.88599 12.097C2.78799 12.196 2.78399 12.424 2.87899 12.519C2.95299 12.593 3.01599 12.603 3.69099 12.663C4.79899 12.762 6.22599 13.036 7.26299 13.352C7.49899 13.423 7.56599 13.43 7.65699 13.398C7.79099 13.352 7.83999 13.275 7.83999 13.11C7.83999 12.93 7.73399 12.8639 7.22499 12.7199C5.93399 12.3609 4.44399 12.097 3.38899 12.041C2.98499 12.02 2.95999 12.023 2.88599 12.097Z" fill="#7B7796"/>
<path d="M14.3439 12.055C13.9179 12.097 13.2359 12.189 12.7999 12.263C11.7949 12.431 10.2689 12.825 10.1429 12.948C10.0549 13.036 10.0509 13.265 10.1359 13.359C10.2449 13.479 10.3609 13.472 10.9229 13.31C12.0089 13.001 13.1839 12.776 14.2379 12.677C15.0149 12.604 15.0399 12.6 15.1209 12.519C15.2119 12.428 15.2119 12.196 15.1169 12.101C15.0569 12.041 15.0049 12.031 14.7589 12.038C14.5969 12.038 14.4109 12.048 14.3439 12.055Z" fill="#7B7796"/>
<path d="M2.88599 13.5041C2.78799 13.6031 2.78399 13.831 2.87899 13.926C2.95299 14 3.02299 14.014 3.65599 14.07C4.73899 14.172 5.99399 14.418 7.14399 14.759C7.37199 14.823 7.59 14.8791 7.632 14.8791C7.745 14.8791 7.91 14.693 7.91 14.566C7.91 14.369 7.79799 14.292 7.27699 14.144C6.00099 13.779 4.46499 13.504 3.38899 13.448C2.98499 13.427 2.95999 13.4301 2.88599 13.5041Z" fill="#7B7796"/>
<path d="M14.7299 13.465C13.5279 13.532 11.9249 13.809 10.5999 14.178C10.1569 14.301 10.0719 14.361 10.0719 14.558C10.0719 14.85 10.2759 14.924 10.7259 14.794C11.9569 14.435 13.4509 14.157 14.5199 14.087C15.0959 14.045 15.1879 13.999 15.1879 13.746C15.1879 13.528 15.0539 13.444 14.7299 13.465Z" fill="#7B7796"/>
</g>
</svg>
