<svg width="20" height="20" viewBox="0 0 20 20" fill="none" xmlns="http://www.w3.org/2000/svg">
<mask id="mask0_1_543" style="mask-type:luminance" maskUnits="userSpaceOnUse" x="0" y="0" width="20" height="20">
<path d="M20 0H0V20H20V0Z" fill="white"/>
</mask>
<g mask="url(#mask0_1_543)">
<path d="M8.33301 10.833C8.69101 11.312 9.148 11.7079 9.672 11.9939C10.196 12.2799 10.776 12.4509 11.372 12.4939C11.968 12.5359 12.566 12.45 13.126 12.241C13.686 12.033 14.194 11.7059 14.617 11.2829L17.117 8.78295C17.876 7.99695 18.296 6.94495 18.286 5.85195C18.277 4.75995 17.838 3.71494 17.066 2.94194C16.293 2.16994 15.248 1.73194 14.156 1.72194C13.063 1.71294 12.011 2.13296 11.225 2.89196L9.79199 4.31694" stroke="#E0CE2C" stroke-width="2" stroke-linecap="round" stroke-linejoin="round"/>
<path d="M11.667 9.16694C11.309 8.68794 10.852 8.29196 10.328 8.00596C9.80299 7.71996 9.22398 7.54896 8.62798 7.50596C8.03198 7.46396 7.43401 7.54995 6.87401 7.75896C6.31401 7.96696 5.80599 8.29396 5.38299 8.71696L2.88299 11.217C2.12399 12.003 1.70398 13.055 1.71398 14.148C1.72298 15.24 2.16101 16.285 2.93401 17.058C3.70701 17.83 4.75199 18.268 5.84399 18.278C6.93699 18.287 7.98902 17.867 8.77502 17.108L10.2 15.683" stroke="#E0CE2C" stroke-width="2" stroke-linecap="round" stroke-linejoin="round"/>
</g>
</svg>
