<svg width="16" height="15" viewBox="0 0 16 15" fill="none" xmlns="http://www.w3.org/2000/svg">
<path d="M4.25 7.125C2.386 7.125 0.875 5.614 0.875 3.75C0.875 1.886 2.386 0.375 4.25 0.375C6.114 0.375 7.625 1.886 7.625 3.75C7.625 5.614 6.114 7.125 4.25 7.125ZM4.25 14.625C2.386 14.625 0.875 13.114 0.875 11.25C0.875 9.386 2.386 7.875 4.25 7.875C6.114 7.875 7.625 9.386 7.625 11.25C7.625 13.114 6.114 14.625 4.25 14.625ZM11.75 7.125C9.886 7.125 8.375 5.614 8.375 3.75C8.375 1.886 9.886 0.375 11.75 0.375C13.614 0.375 15.125 1.886 15.125 3.75C15.125 5.614 13.614 7.125 11.75 7.125ZM11.75 14.625C9.886 14.625 8.375 13.114 8.375 11.25C8.375 9.386 9.886 7.875 11.75 7.875C13.614 7.875 15.125 9.386 15.125 11.25C15.125 13.114 13.614 14.625 11.75 14.625ZM4.25 5.625C5.286 5.625 6.125 4.786 6.125 3.75C6.125 2.714 5.286 1.875 4.25 1.875C3.214 1.875 2.375 2.714 2.375 3.75C2.375 4.786 3.214 5.625 4.25 5.625ZM4.25 13.125C5.286 13.125 6.125 12.286 6.125 11.25C6.125 10.214 5.286 9.375 4.25 9.375C3.214 9.375 2.375 10.214 2.375 11.25C2.375 12.286 3.214 13.125 4.25 13.125ZM11.75 5.625C12.786 5.625 13.625 4.786 13.625 3.75C13.625 2.714 12.786 1.875 11.75 1.875C10.714 1.875 9.875 2.714 9.875 3.75C9.875 4.786 10.714 5.625 11.75 5.625ZM11.75 13.125C12.786 13.125 13.625 12.286 13.625 11.25C13.625 10.214 12.786 9.375 11.75 9.375C10.714 9.375 9.875 10.214 9.875 11.25C9.875 12.286 10.714 13.125 11.75 13.125Z" fill="#604DCF"/>
</svg>
