<svg width="27" height="24" viewBox="0 0 27 24" fill="none" xmlns="http://www.w3.org/2000/svg">
<path d="M17.3199 22.432H21.24C21.38 22.432 21.5 22.312 21.5 22.171V11.978C21.5 11.401 21.97 10.933 22.54 10.933H24.4599L13.68 1.594L2.85996 10.933H4.76999C5.34999 10.933 5.81992 11.401 5.81992 11.978V22.171C5.81992 22.312 5.93993 22.432 6.07993 22.432H9.99997V15.898C9.99997 15.178 10.59 14.592 11.31 14.592H16.01C16.73 14.592 17.3199 15.178 17.3199 15.898V22.432ZM21.24 24H16.79C16.22 24 15.75 23.532 15.75 22.955V16.523C15.75 16.323 15.59 16.16 15.39 16.16H11.93C11.73 16.16 11.5699 16.323 11.5699 16.523V22.955C11.5699 23.532 11.1 24 10.52 24H6.07993C5.06993 24 4.24997 23.18 4.24997 22.171V12.501H2.22995C1.70995 12.501 1.19995 12.225 0.979953 11.748C0.729953 11.211 0.860021 10.597 1.30002 10.212L12.61 0.408997C12.87 0.160997 13.25 0.006 13.65 0C14.07 0.006 14.45 0.160998 14.73 0.434998L26.02 10.208C26.02 10.21 26.02 10.212 26.02 10.212C26.46 10.597 26.5899 11.211 26.3399 11.748C26.1199 12.225 25.6099 12.501 25.0899 12.501H23.0699V22.171C23.0699 23.18 22.25 24 21.24 24Z" fill="#0F62FE"/>
</svg>
