<svg width="24" height="24" viewBox="0 0 24 24" fill="none" xmlns="http://www.w3.org/2000/svg">
<path d="M22.62 12C22.62 6.138 17.86 1.385 12 1.385C6.14 1.385 1.38 6.138 1.38 12C1.38 17.862 6.14 22.615 12 22.615C17.86 22.615 22.62 17.862 22.62 12ZM24 12C24 18.628 18.63 24 12 24C5.37 24 0 18.628 0 12C0 5.372 5.37 0 12 0C18.63 0 24 5.372 24 12ZM5.97998 12H6.12C6.4 12 6.56002 12.312 6.40002 12.546C5.85002 13.376 5.52002 14.37 5.52002 15.438V15.896C5.52002 16.008 5.53004 16.118 5.54004 16.226C5.57004 16.433 5.40995 16.615 5.19995 16.615H4.72998C3.89998 16.615 3.22998 15.923 3.22998 15.071C3.22998 13.377 4.35998 12 5.97998 12ZM18.02 12C19.64 12 20.77 13.377 20.77 15.071C20.77 15.923 20.1 16.615 19.27 16.615H18.8C18.59 16.615 18.43 16.433 18.46 16.226C18.47 16.118 18.48 16.008 18.48 15.896V15.438C18.48 14.37 18.15 13.376 17.6 12.546C17.45 12.312 17.6 12 17.88 12H18.02ZM6.68994 11.077C5.66994 11.077 4.84998 10.146 4.84998 9C4.84998 7.739 5.56994 6.923 6.68994 6.923C7.80994 6.923 8.54004 7.739 8.54004 9C8.54004 10.146 7.70994 11.077 6.68994 11.077ZM17.3101 11.077C16.2901 11.077 15.46 10.146 15.46 9C15.46 7.739 16.1901 6.923 17.3101 6.923C18.4301 6.923 19.15 7.739 19.15 9C19.15 10.146 18.3301 11.077 17.3101 11.077ZM13.08 11.538C15.28 11.538 17.08 13.288 17.08 15.438V15.896C17.08 16.802 16.32 17.538 15.39 17.538H8.60999C7.67999 17.538 6.92004 16.802 6.92004 15.896V15.438C6.92004 13.288 8.71004 11.538 10.92 11.538H13.08ZM14.54 7.385C14.54 8.912 13.4 10.154 12 10.154C10.6 10.154 9.45996 8.912 9.45996 7.385C9.45996 5.677 10.43 4.615 12 4.615C13.57 4.615 14.54 5.677 14.54 7.385Z" fill="#65676B"/>
</svg>
