<svg width="25" height="24" viewBox="0 0 25 24" fill="none" xmlns="http://www.w3.org/2000/svg">
<path d="M7.13 24C6.69 24 6.32996 23.642 6.32996 23.2C6.32996 22.758 6.69 22.4 7.13 22.4H18.33C18.77 22.4 19.13 22.758 19.13 23.2C19.13 23.642 18.77 24 18.33 24H7.13ZM16.11 10.769L10.66 14.051C10.16 14.349 9.53003 13.994 9.53003 13.415V6.85C9.53003 6.273 10.16 5.917 10.66 6.214L16.11 9.498C16.59 9.786 16.59 10.48 16.11 10.769ZM21 18.667C22.32 18.667 23.4 17.591 23.4 16.267V4C23.4 2.675 22.32 1.6 21 1.6H4.46997C3.13997 1.6 2.06995 2.675 2.06995 4V16.267C2.06995 17.591 3.13997 18.667 4.46997 18.667H21ZM21 20.267H4.46997C2.25997 20.267 0.469971 18.476 0.469971 16.267V4C0.469971 1.791 2.25997 0 4.46997 0H21C23.21 0 25 1.791 25 4V16.267C25 18.476 23.21 20.267 21 20.267Z" fill="#65676B"/>
</svg>
