<svg width="20" height="19" viewBox="0 0 20 19" fill="none" xmlns="http://www.w3.org/2000/svg">
<path d="M10.344 14.9L14.281 17.4C14.789 17.72 15.414 17.24 15.266 16.66L14.125 12.17C14.094 12.05 14.099 11.92 14.139 11.8C14.179 11.67 14.253 11.57 14.352 11.48L17.883 8.54004C18.344 8.16004 18.109 7.37997 17.508 7.33997L12.899 7.05005C12.773 7.04005 12.652 7.00004 12.551 6.92004C12.449 6.85004 12.372 6.74 12.328 6.63L10.609 2.30005C10.564 2.17005 10.481 2.05999 10.372 1.98999C10.263 1.90999 10.133 1.87 10 1.87C9.867 1.87 9.737 1.90999 9.628 1.98999C9.519 2.05999 9.436 2.17005 9.391 2.30005L7.672 6.63C7.628 6.74 7.55102 6.85004 7.45002 6.92004C7.34802 7.00004 7.22699 7.04005 7.10199 7.05005L2.49201 7.33997C1.89101 7.37997 1.65601 8.16004 2.11701 8.54004L5.64899 11.48C5.74699 11.57 5.82103 11.67 5.86103 11.8C5.90103 11.92 5.90601 12.05 5.87501 12.17L4.82001 16.33C4.64101 17.03 5.39101 17.6 5.99201 17.22L9.65601 14.9C9.75901 14.83 9.878 14.8 10 14.8C10.122 14.8 10.241 14.83 10.344 14.9Z" stroke="black" stroke-width="2" stroke-linecap="round" stroke-linejoin="round"/>
</svg>
