<svg width="16" height="15" viewBox="0 0 16 15" fill="none" xmlns="http://www.w3.org/2000/svg">
<path d="M0.5 7.5C0.5 6.851 0.582 6.22201 0.737 5.62201C1.555 5.66501 2.366 5.258 2.804 4.5C3.241 3.743 3.188 2.83702 2.743 2.15002C3.638 1.27102 4.751 0.614996 5.995 0.270996C6.367 0.999996 7.125 1.5 8 1.5C8.875 1.5 9.633 0.999996 10.005 0.270996C11.249 0.614996 12.362 1.27102 13.257 2.15002C12.812 2.83702 12.759 3.743 13.196 4.5C13.634 5.258 14.445 5.66501 15.263 5.62201C15.418 6.22201 15.5 6.851 15.5 7.5C15.5 8.148 15.418 8.77701 15.263 9.37701C14.445 9.33501 13.634 9.742 13.196 10.5C12.759 11.257 12.812 12.163 13.257 12.849C12.362 13.728 11.249 14.385 10.005 14.729C9.633 13.999 8.875 13.5 8 13.5C7.125 13.5 6.367 13.999 5.995 14.729C4.751 14.385 3.638 13.728 2.743 12.849C3.188 12.163 3.241 11.257 2.804 10.5C2.366 9.742 1.555 9.33501 0.737 9.37701C0.582 8.77701 0.5 8.148 0.5 7.5ZM4.103 9.75C4.575 10.568 4.711 11.509 4.526 12.393C4.832 12.61 5.158 12.799 5.499 12.956C6.171 12.353 7.054 12 8 12C8.946 12 9.829 12.353 10.501 12.956C10.842 12.799 11.168 12.61 11.474 12.393C11.289 11.509 11.424 10.568 11.897 9.75C12.37 8.931 13.117 8.34401 13.974 8.06201C13.991 7.87601 14 7.689 14 7.5C14 7.311 13.991 7.12399 13.974 6.93799C13.117 6.65599 12.37 6.068 11.897 5.25C11.424 4.431 11.289 3.48999 11.474 2.60699C11.168 2.38899 10.842 2.20101 10.501 2.04401C9.829 2.64601 8.946 3 8 3C7.054 3 6.171 2.64601 5.499 2.04401C5.158 2.20101 4.832 2.38899 4.526 2.60699C4.711 3.48999 4.575 4.431 4.103 5.25C3.63 6.068 2.883 6.65599 2.026 6.93799C2.009 7.12399 2 7.311 2 7.5C2 7.689 2.009 7.87601 2.026 8.06201C2.883 8.34401 3.63 8.931 4.103 9.75ZM8 9.75C6.757 9.75 5.75 8.743 5.75 7.5C5.75 6.257 6.757 5.25 8 5.25C9.243 5.25 10.25 6.257 10.25 7.5C10.25 8.743 9.243 9.75 8 9.75ZM8 8.25C8.414 8.25 8.75 7.914 8.75 7.5C8.75 7.086 8.414 6.75 8 6.75C7.586 6.75 7.25 7.086 7.25 7.5C7.25 7.914 7.586 8.25 8 8.25Z" fill="#7B7796"/>
</svg>
