<svg width="18" height="17" viewBox="0 0 18 17" fill="none" xmlns="http://www.w3.org/2000/svg">
<path d="M5.09399 12.73L2.52301 14.88C2.43201 14.96 2.32202 15.01 2.20502 15.02C2.08702 15.04 1.96802 15.02 1.86102 14.97C1.75402 14.92 1.663 14.84 1.599 14.74C1.535 14.64 1.501 14.52 1.5 14.41V2C1.5 1.83 1.56598 1.68006 1.68298 1.56006C1.79998 1.44006 1.959 1.38 2.125 1.38H15.875C16.041 1.38 16.2 1.44006 16.317 1.56006C16.434 1.68006 16.5 1.83 16.5 2V12C16.5 12.17 16.434 12.3199 16.317 12.4399C16.2 12.5599 16.041 12.62 15.875 12.62H5.383L5.09399 12.73Z" stroke="black" stroke-width="2" stroke-linecap="round" stroke-linejoin="round"/>
</svg>
