<svg width="18" height="16" viewBox="0 0 18 16" fill="none" xmlns="http://www.w3.org/2000/svg">
<path d="M4.04996 0.136012C3.79996 0.235012 3.54395 0.492011 3.44895 0.748011C3.38895 0.906011 3.37495 1.02603 3.37495 1.34603V1.74703L2.47095 1.75704L1.56396 1.76803L1.35395 1.87002C1.08295 2.00302 0.815953 2.27004 0.681953 2.54104L0.579956 2.75204V8.78103V14.811L0.681953 15.022C0.815953 15.292 1.08295 15.56 1.35395 15.693L1.56396 15.795L5.77296 15.8061C9.95296 15.8131 9.98395 15.813 10.055 15.742C10.139 15.658 10.15 15.436 10.076 15.335C10.027 15.268 9.93195 15.268 5.91695 15.25C2.05995 15.233 1.80395 15.229 1.66995 15.169C1.47995 15.085 1.30796 14.913 1.21596 14.723L1.14295 14.565L1.13196 10.124L1.12495 5.68801H8.99995H16.875V8.14901C16.875 10.564 16.875 10.61 16.945 10.68C17.04 10.775 17.272 10.775 17.367 10.68C17.438 10.61 17.438 10.578 17.43 6.67904L17.42 2.75204L17.318 2.54104C17.184 2.27004 16.917 2.00302 16.646 1.87002L16.436 1.76803L15.532 1.75704L14.625 1.74703V1.34603C14.625 0.840034 14.555 0.629054 14.309 0.379054C13.746 -0.179946 12.72 0.0200112 12.449 0.748011C12.389 0.906011 12.375 1.02603 12.375 1.34603V1.75003H11.25H10.125V1.34603C10.125 1.02603 10.111 0.906011 10.051 0.748011C9.77996 0.0200112 8.75396 -0.179946 8.19096 0.379054C7.94196 0.629054 7.87495 0.840034 7.87495 1.34603V1.75003H6.74995H5.62495V1.34603C5.62495 0.840034 5.55795 0.629054 5.30895 0.379054C4.99595 0.0700536 4.48196 -0.0289884 4.04996 0.136012ZM4.78095 0.741053C4.84795 0.783053 4.93195 0.875042 4.97095 0.942042C5.04096 1.05804 5.04495 1.12103 5.04495 2.03103C5.04495 2.94203 5.04096 3.005 4.97095 3.121C4.74995 3.497 4.24995 3.497 4.02895 3.121C3.95895 3.005 3.95496 2.94203 3.95496 2.03103C3.95496 1.12103 3.95895 1.05804 4.02895 0.942042C4.13395 0.762042 4.30295 0.659998 4.49995 0.659998C4.61295 0.659998 4.70395 0.685053 4.78095 0.741053ZM9.28095 0.741053C9.34795 0.783053 9.43196 0.875042 9.47095 0.942042C9.54095 1.05804 9.54495 1.12103 9.54495 2.03103C9.54495 2.94203 9.54095 3.005 9.47095 3.121C9.24996 3.497 8.74995 3.497 8.52895 3.121C8.45895 3.005 8.45496 2.94203 8.45496 2.03103C8.45496 1.12103 8.45895 1.05804 8.52895 0.942042C8.63395 0.762042 8.80295 0.659998 8.99995 0.659998C9.11295 0.659998 9.20395 0.685053 9.28095 0.741053ZM13.781 0.741053C13.848 0.783053 13.932 0.875042 13.971 0.942042C14.041 1.05804 14.045 1.12103 14.045 2.03103C14.045 2.94203 14.041 3.005 13.971 3.121C13.75 3.497 13.25 3.497 13.029 3.121C12.959 3.005 12.955 2.94203 12.955 2.03103C12.955 1.12103 12.959 1.05804 13.029 0.942042C13.134 0.762042 13.303 0.659998 13.5 0.659998C13.613 0.659998 13.704 0.685053 13.781 0.741053ZM3.37495 2.71701C3.37495 3.22301 3.44196 3.43405 3.69096 3.68405C4.25396 4.24305 5.27996 4.04203 5.55096 3.31503C5.61096 3.15603 5.62495 3.03701 5.62495 2.71701V2.31301H6.74995H7.87495V2.71701C7.87495 3.03701 7.88895 3.15603 7.94895 3.31503C8.21995 4.04203 9.24595 4.24305 9.80895 3.68405C10.058 3.43405 10.125 3.22301 10.125 2.71701V2.31301H11.25H12.375V2.71701C12.375 3.22301 12.442 3.43405 12.691 3.68405C13.254 4.24305 14.28 4.04203 14.551 3.31503C14.611 3.15603 14.625 3.03704 14.625 2.71304V2.30606L15.409 2.32003C16.281 2.33403 16.39 2.35801 16.618 2.59701C16.847 2.84001 16.854 2.88602 16.868 4.06002L16.882 5.12503H8.99995H1.11795L1.13196 4.06002C1.14596 2.88602 1.15296 2.83604 1.38196 2.60104C1.62096 2.35104 1.75795 2.323 2.68195 2.316L3.37495 2.31301V2.71701Z" fill="#7B7796"/>
</svg>
